<svg xmlns="http://www.w3.org/2000/svg" width="22" height="22" viewBox="0 0 22 22" fill="none">
  <path
    d="M10.9998 1.14581C8.5951 1.14581 6.64567 3.09524 6.64567 5.49998V9.16665C6.64567 11.5714 8.5951 13.5208 10.9998 13.5208C13.4046 13.5208 15.354 11.5714 15.354 9.16665V5.49998C15.354 3.09524 13.4046 1.14581 10.9998 1.14581Z"
    fill="" />
  <path
    d="M4.354 9.16665C4.354 8.78695 4.0462 8.47915 3.6665 8.47915C3.28681 8.47915 2.979 8.78695 2.979 9.16665C2.979 13.3648 6.20439 16.8097 10.3123 17.1584V19.2069C10.1139 19.233 9.91666 19.2704 9.72147 19.3192L8.99976 19.4997C8.6314 19.5918 8.40744 19.965 8.49953 20.3334C8.59162 20.7017 8.96489 20.9257 9.33325 20.8336L10.055 20.6532C10.3651 20.5756 10.6825 20.5369 10.9998 20.5369C11.3172 20.5369 11.6345 20.5756 11.9447 20.6532L12.6664 20.8336C13.0348 20.9257 13.4081 20.7017 13.5001 20.3334C13.5922 19.965 13.3683 19.5918 12.9999 19.4997L12.2782 19.3192C12.083 19.2704 11.8857 19.233 11.6873 19.2069V17.1584C15.7953 16.8097 19.0207 13.3648 19.0207 9.16665C19.0207 8.78695 18.7129 8.47915 18.3332 8.47915C17.9535 8.47915 17.6457 8.78695 17.6457 9.16665C17.6457 12.837 14.6702 15.8125 10.9998 15.8125C7.32944 15.8125 4.354 12.837 4.354 9.16665Z"
    fill="" />
</svg>