<svg xmlns="http://www.w3.org/2000/svg" width="21" height="21" viewBox="0 0 21 21" fill="none">
  <path fill-rule="evenodd" clip-rule="evenodd"
    d="M9.0835 0.229187C4.14745 0.229187 0.145996 4.23064 0.145996 9.16669C0.145996 14.1027 4.14745 18.1042 9.0835 18.1042C14.0195 18.1042 18.021 14.1027 18.021 9.16669C18.021 4.23064 14.0195 0.229187 9.0835 0.229187ZM1.521 9.16669C1.521 4.99003 4.90684 1.60419 9.0835 1.60419C13.2601 1.60419 16.646 4.99003 16.646 9.16669C16.646 13.3433 13.2601 16.7292 9.0835 16.7292C4.90684 16.7292 1.521 13.3433 1.521 9.16669Z"
    fill="#8D8E90" />
  <path
    d="M16.903 16.014C16.6345 15.7455 16.1992 15.7455 15.9308 16.014C15.6623 16.2824 15.6623 16.7178 15.9307 16.9862L19.5973 20.6529C19.8658 20.9213 20.3011 20.9213 20.5696 20.6529C20.8381 20.3844 20.8381 19.9491 20.5696 19.6806L16.903 16.014Z"
    fill="#8D8E90" />
</svg>