<svg width="24" height="24" viewBox="0 0 24 24" fill="none" xmlns="http://www.w3.org/2000/svg">
  <path fill-rule="evenodd" clip-rule="evenodd"
    d="M14.5315 1.25079C13.5866 1.23202 12.5363 1.5634 10.8119 2.10743L10.5872 2.1783C9.9121 2.3911 9.49673 2.52203 9.11234 2.70948C8.3177 3.09699 7.62311 3.66252 7.08257 4.36212C6.8211 4.70054 6.60868 5.08074 6.26347 5.69865L3.81809 10.0749C3.0394 11.468 2.56423 12.318 2.38202 13.1539C1.97943 15.0007 2.51022 16.9274 3.80179 18.3075C4.38633 18.9321 5.2298 19.419 6.61202 20.2167L6.87374 20.3678C8.25573 21.166 9.09906 21.653 9.93226 21.847C11.7732 22.2754 13.7072 21.7718 15.1053 20.4997C15.7381 19.924 16.2367 19.0874 17.0538 17.7166L19.621 13.4107C19.9836 12.8027 20.2066 12.4287 20.369 12.033C20.7046 11.2151 20.847 10.3308 20.7853 9.44887C20.7554 9.02224 20.6611 8.59705 20.5079 7.90601L20.4569 7.67603C20.0659 5.91063 19.8277 4.8353 19.339 4.02636C18.3188 2.33768 16.5041 1.28996 14.5315 1.25079ZM11.0974 3.59022C13.0399 2.97773 13.8359 2.73727 14.5018 2.75049C15.9597 2.77944 17.301 3.55385 18.0551 4.802C18.3995 5.37205 18.5892 6.18164 19.03 8.17015C19.2008 8.9404 19.2678 9.2516 19.289 9.5536C19.3346 10.2055 19.2293 10.8591 18.9812 11.4636C18.8663 11.7437 18.7049 12.0181 18.3009 12.6957L15.8428 16.8186C14.9236 18.3603 14.5421 18.9842 14.0959 19.3902C13.0625 20.3304 11.633 20.7027 10.2723 20.386C9.68472 20.2493 9.04733 19.8907 7.49289 18.9932C5.93845 18.0958 5.30921 17.7231 4.89699 17.2826C3.94236 16.2625 3.55004 14.8384 3.8476 13.4734C3.97609 12.8839 4.3257 12.2416 5.20124 10.6747L7.54266 6.48447C7.9275 5.79575 8.08445 5.51879 8.26955 5.27923C8.66908 4.76214 9.18246 4.34414 9.76981 4.05772C10.0419 3.92502 10.3449 3.82747 11.0974 3.59022Z"
    fill="" />
  <path fill-rule="evenodd" clip-rule="evenodd"
    d="M11.2567 7.20622C10.5664 8.40195 10.9761 9.93093 12.1718 10.6213C13.3675 11.3116 14.8965 10.902 15.5869 9.70622C16.2772 8.51049 15.8675 6.98151 14.6718 6.29116C13.4761 5.6008 11.9471 6.01049 11.2567 7.20622ZM12.5558 7.95622C12.2796 8.43451 12.4435 9.0461 12.9218 9.32225C13.4001 9.59839 14.0117 9.43451 14.2878 8.95622C14.564 8.47793 14.4001 7.86634 13.9218 7.5902C13.4435 7.31405 12.8319 7.47793 12.5558 7.95622Z"
    fill="" />
</svg>