<svg width="24" height="24" viewBox="0 0 24 24" fill="none" xmlns="http://www.w3.org/2000/svg">
  <path fill-rule="evenodd" clip-rule="evenodd"
    d="M8.43562 2.75661C9.45899 -0.829312 14.5409 -0.829312 15.5643 2.75661C15.8911 3.90177 17.0676 4.58103 18.2228 4.29148C21.84 3.38479 24.381 7.78589 21.7872 10.4651C20.9588 11.3207 20.9588 12.6793 21.7872 13.5349C24.381 16.2141 21.84 20.6152 18.2228 19.7085C17.0676 19.419 15.8911 20.0982 15.5643 21.2434C14.5409 24.8293 9.45899 24.8293 8.43562 21.2434C8.1088 20.0982 6.93229 19.419 5.77714 19.7085C2.15995 20.6152 -0.381026 16.2141 2.21279 13.5349C3.04112 12.6793 3.04112 11.3207 2.21279 10.4651C-0.381025 7.78589 2.15995 3.38479 5.77714 4.29148C6.93229 4.58103 8.1088 3.90177 8.43562 2.75661ZM15.1872 8.81281C15.4801 9.1057 15.4801 9.58058 15.1872 9.87347L9.53033 15.5303C9.23744 15.8232 8.76256 15.8232 8.46967 15.5303C8.17678 15.2374 8.17678 14.7626 8.46967 14.4697L14.1265 8.81281C14.4194 8.51992 14.8943 8.51992 15.1872 8.81281ZM9 10C8.44772 10 8 9.55231 8 9.00003C8 8.44775 8.44772 8.00003 9 8.00003C9.55228 8.00003 10 8.44775 10 9.00003C10 9.55231 9.55228 10 9 10ZM15 16C14.4477 16 14 15.5523 14 15C14 14.4477 14.4477 14 15 14C15.5523 14 16 14.4477 16 15C16 15.5523 15.5523 16 15 16Z"
    fill="" />
</svg>