<svg width="24" height="24" viewBox="0 0 24 24" fill="none" xmlns="http://www.w3.org/2000/svg">
  <path
    d="M13.4098 19.5009C12.9955 19.5009 12.6598 19.8367 12.6598 20.2509C12.6598 20.6651 12.9955 21.0009 13.4098 21.0009H19.4098C19.824 21.0009 20.1598 20.6651 20.1598 20.2509C20.1598 19.8367 19.824 19.5009 19.4098 19.5009H13.4098Z"
    fill="" />
  <path
    d="M14.2038 4.57541L14.2939 4.62741C15.072 5.07662 15.7209 5.45121 16.196 5.81786C16.6975 6.20485 17.0955 6.64905 17.2622 7.27123C17.4289 7.89341 17.3063 8.47711 17.0655 9.063C16.8984 9.46966 16.6526 9.92665 16.3565 10.4479L15.7212 10.0703L15.713 10.0655L8.78767 6.06719L8.14002 5.68548C8.44011 5.17439 8.71049 4.73786 8.97669 4.39291C9.36368 3.89143 9.80788 3.4934 10.4301 3.32669C11.0522 3.15997 11.6359 3.28258 12.2218 3.52338C12.7769 3.75151 13.4257 4.12615 14.2038 4.57541Z"
    fill="" />
  <path
    d="M7.38859 6.98375L3.91062 13.0077C3.61284 13.5225 3.37738 13.9295 3.29014 14.3925C3.20291 14.8555 3.27409 15.3204 3.36412 15.9082L3.38838 16.0671C3.55456 17.1585 3.69155 18.058 3.89815 18.7402C4.11422 19.4536 4.44637 20.0712 5.09964 20.4483C5.75291 20.8255 6.45378 20.8044 7.17967 20.6348C7.87373 20.4726 8.72126 20.1415 9.74949 19.7397L9.89924 19.6813C10.4534 19.4653 10.8915 19.2945 11.2489 18.9875C11.6062 18.6804 11.841 18.273 12.138 17.7577L15.6077 11.7478L14.9588 11.3622L8.02893 7.36118L7.38859 6.98375Z"
    fill="" />
</svg>