<svg width="24" height="24" viewBox="0 0 24 24" fill="none" xmlns="http://www.w3.org/2000/svg">
  <path
    d="M12.9193 12.0138C11.0511 8.77813 11.3964 5.88855 11.6713 4.03509L11.6999 3.84375C11.7574 3.46064 11.8128 3.09183 11.8315 2.7916C11.8426 2.61346 11.8443 2.41776 11.8137 2.22966C11.7837 2.04475 11.7114 1.79755 11.5174 1.5885C11.0766 1.11358 10.4575 1.24542 10.1232 1.35222C9.72585 1.47913 9.22929 1.7312 8.62679 2.07905C3.48515 5.04758 1.72349 11.6222 4.69202 16.7638C7.66055 21.9055 14.2351 23.6671 19.3768 20.6986C19.9793 20.3507 20.4459 20.0467 20.7544 19.7661C21.0141 19.5299 21.4378 19.0597 21.2469 18.4405C21.1629 18.168 20.9849 17.9818 20.8398 17.8633C20.6922 17.7428 20.5219 17.6464 20.3621 17.5669C20.0927 17.4331 19.7457 17.2966 19.3851 17.1549L19.205 17.084C17.4625 16.3953 14.7874 15.2495 12.9193 12.0138Z"
    fill="" />
</svg>