<svg width="24" height="24" viewBox="0 0 24 24" fill="none" xmlns="http://www.w3.org/2000/svg">
  <path
    d="M12.5558 7.95622C12.2796 8.43451 12.4435 9.0461 12.9218 9.32225C13.4001 9.59839 14.0117 9.43451 14.2878 8.95622C14.564 8.47793 14.4001 7.86634 13.9218 7.5902C13.4435 7.31405 12.8319 7.47793 12.5558 7.95622Z"
    fill="" />
  <path fill-rule="evenodd" clip-rule="evenodd"
    d="M10.8119 2.10743C12.5363 1.5634 13.5866 1.23202 14.5315 1.25079C16.5041 1.28996 18.3188 2.33768 19.339 4.02636C19.8277 4.8353 20.0659 5.91059 20.4569 7.67596L20.5079 7.90601C20.6611 8.59705 20.7554 9.02224 20.7853 9.44887C20.847 10.3308 20.7046 11.2151 20.369 12.033C20.2066 12.4287 19.9836 12.8027 19.621 13.4107L17.0538 17.7165C16.2367 19.0874 15.7381 19.924 15.1053 20.4997C13.7072 21.7718 11.7732 22.2754 9.93226 21.847C9.09906 21.653 8.25573 21.166 6.87374 20.3678L6.61204 20.2167C5.22982 19.419 4.38633 18.9321 3.80179 18.3075C2.51022 16.9274 1.97943 15.0007 2.38202 13.1539C2.56423 12.318 3.0394 11.468 3.81809 10.0749L6.26346 5.69866C6.60868 5.08075 6.8211 4.70054 7.08257 4.36212C7.62311 3.66252 8.3177 3.09699 9.11234 2.70948C9.49673 2.52203 9.9121 2.3911 10.5872 2.1783L10.8119 2.10743ZM11.2567 7.20622C10.5664 8.40195 10.9761 9.93093 12.1718 10.6213C13.3675 11.3116 14.8965 10.902 15.5869 9.70622C16.2772 8.51049 15.8675 6.98151 14.6718 6.29116C13.4761 5.6008 11.9471 6.01049 11.2567 7.20622Z"
    fill="" />
</svg>